# File created by Blade
# Date/Time:  Wed Jan 21 19:03:17 2015
#---------------------------------------------------------
:version 1.10
:name HOM
:units
  mass 1.0
  length 1.000000
  angle deg
:documentation
     Acclaim Skeleton File
:root
   axis xyz
   order TX TY TZ RX RY RZ
   position 0.000000 0.000000 0.000000
   orientation 0 0 0
:bonedata
   begin
      id 1
      name RightUpLeg_dum
      direction -1.000000 0.000000 0.000000
      length 3.693983
      axis 0.0 0.0 0.0 xyz
   end
   begin
      id 2
      name LeftUpLeg_dum
      direction 1.000000 0.000000 0.000000
      length 3.693983
      axis 0.0 0.0 0.0 xyz
   end
   begin
      id 3
      name Spine_dum
      direction 0.000000 1.000000 0.000000
      length 2.392956
      axis 0.0 0.0 0.0 xyz
   end
   begin
      id 4
      name RightUpLeg
      direction 0.000000 -1.000000 0.000000
      length 15.795667
      axis 0.0 0.0 0.0 xyz
      dof rx ry rz
   end
   begin
      id 5
      name RightLeg
      direction 0.000000 -1.000000 0.000000
      length 14.766989
      axis 0.0 0.0 0.0 xyz
      dof rx ry rz
   end
   begin
      id 6
      name RightFoot
      direction 0.000000 -0.258819 0.965926
      length 4.962790
      axis 15.0 0.0 0.0 xyz
      dof rx ry rz
   end
   begin
      id 7
      name RightToeBase
      direction 0.000000 0.000000 1.000000
      length 2.952750
      axis 0.0 0.0 0.0 xyz
      dof rx ry rz
   end
   begin
      id 8
      name LeftUpLeg
      direction 0.000000 -1.000000 0.000000
      length 15.795667
      axis 0.0 0.0 0.0 xyz
      dof rx ry rz
   end
   begin
      id 9
      name LeftLeg
      direction 0.000000 -1.000000 0.000000
      length 14.766989
      axis 0.0 0.0 0.0 xyz
      dof rx ry rz
   end
   begin
      id 10
      name LeftFoot
      direction 0.000000 -0.258819 0.965926
      length 4.962790
      axis 15.0 0.0 0.0 xyz
      dof rx ry rz
   end
   begin
      id 11
      name LeftToeBase
      direction 0.000000 0.000000 1.000000
      length 2.952750
      axis 0.0 0.0 0.0 xyz
      dof rx ry rz
   end
   begin
      id 12
      name Spine
      direction 0.000000 1.000000 0.000000
      length 0.000000
      axis 0.0 0.0 0.0 xyz
      dof rx ry rz
   end
   begin
      id 13
      name Spine_dum1
      direction 0.000000 1.000000 0.000000
      length 13.207411
      axis 0.0 0.0 0.0 xyz
   end
   begin
      id 14
      name Spine_dum2
      direction 0.000000 1.000000 0.000000
      length 13.207411
      axis 0.0 0.0 0.0 xyz
   end
   begin
      id 15
      name Spine_dum3
      direction 0.000000 1.000000 0.000000
      length 19.250100
      axis 0.0 0.0 0.0 xyz
   end
   begin
      id 16
      name RightShoulder
      direction -1.000000 0.000000 0.000000
      length 8.140465
      axis 0.0 0.0 90.0 xyz
      dof rx ry rz
   end
   begin
      id 17
      name RightArm
      direction -1.000000 0.000000 0.000000
      length 10.649840
      axis 0.0 0.0 90.0 xyz
      dof rx ry rz
   end
   begin
      id 18
      name RightForeArm
      direction -1.000000 0.000000 0.000000
      length 8.304624
      axis 0.0 0.0 90.0 xyz
      dof ry rz rx
   end
   begin
      id 19
      name RightHand
      direction -1.000000 0.000000 0.000000
      length 0.000000
      axis 0.0 0.0 90.0 xyz
      dof rx ry rz
   end
   begin
      id 20
      name RightHand_dum1
      direction -1.000000 0.000000 0.000000
      length 3.937000
      axis 0.0 0.0 90.0 xyz
   end
   begin
      id 21
      name RightHand_dum2
      direction 0.000000 0.000000 0.000000
      length 0.000000
      axis 0.0 0.0 90.0 xyz
   end
   begin
      id 22
      name RightHandThumb1
      direction 0.000000 0.000000 1.000000
      length 3.937000
      axis 0.0 0.0 90.0 xyz
      dof rx rz ry
   end
   begin
      id 23
      name LeftShoulder
      direction 1.000000 0.000000 0.000000
      length 8.140465
      axis 0.0 0.0 -90.0 xyz
      dof rx ry rz
   end
   begin
      id 24
      name LeftArm
      direction 1.000000 0.000000 0.000000
      length 10.649840
      axis 0.0 0.0 -90.0 xyz
      dof rx ry rz
   end
   begin
      id 25
      name LeftForeArm
      direction 1.000000 0.000000 0.000000
      length 8.304624
      axis 0.0 0.0 -90.0 xyz
      dof ry rz rx
   end
   begin
      id 26
      name LeftHand
      direction 1.000000 0.000000 0.000000
      length 0.000000
      axis 0.0 0.0 -90.0 xyz
      dof rx ry rz
   end
   begin
      id 27
      name LeftHand_dum1
      direction 1.000000 0.000000 0.000000
      length 3.937000
      axis 0.0 0.0 -90.0 xyz
   end
   begin
      id 28
      name LeftHand_dum2
      direction 0.000000 0.000000 0.000000
      length 0.000000
      axis 0.0 0.0 -90.0 xyz
   end
   begin
      id 29
      name LeftHandThumb1
      direction 0.000000 0.000000 1.000000
      length 3.937000
      axis 0.0 0.0 -90.0 xyz
      dof rx rz ry
   end
   begin
      id 30
      name Head
      direction 0.000000 1.000000 0.000000
      length 4.527550
      axis 0.0 0.0 0.0 xyz
      dof rx ry rz
   end
:hierarchy
   begin
      root RightUpLeg_dum LeftUpLeg_dum Spine_dum
      RightUpLeg_dum RightUpLeg
      LeftUpLeg_dum LeftUpLeg
      Spine_dum Spine
      RightUpLeg RightLeg
      RightLeg RightFoot
      RightFoot RightToeBase
      LeftUpLeg LeftLeg
      LeftLeg LeftFoot
      LeftFoot LeftToeBase
      Spine Spine_dum1 Spine_dum2 Spine_dum3
      Spine_dum1 RightShoulder
      Spine_dum2 LeftShoulder
      Spine_dum3 Head
      RightShoulder RightArm
      RightArm RightForeArm
      RightForeArm RightHand
      RightHand RightHand_dum1 RightHand_dum2
      RightHand_dum2 RightHandThumb1
      LeftShoulder LeftArm
      LeftArm LeftForeArm
      LeftForeArm LeftHand
      LeftHand LeftHand_dum1 LeftHand_dum2
      LeftHand_dum2 LeftHandThumb1
   end

# File created by Blade
# Date/Time:  Wed Jan 21 19:03:07 2015
# Frame Rate: 120.000 fps
#------------------------------------------------------
:FULLY-SPECIFIED
:DEGREES
592
root -4.877498 30.040912 -10.626820 118.380915 -33.307261 6.118913
RightUpLeg -139.327586 -19.131293 11.598729
RightLeg -4.973044 -0.000000 0.000000
RightFoot 10.565148 -0.370662 30.331117
RightToeBase 20.419637 -0.000000 -0.000000
LeftUpLeg -110.762107 4.763070 -29.243273
LeftLeg -2.773035 -0.000000 0.000000
LeftFoot -2.880282 10.494536 -18.260490
LeftToeBase 7.960246 -0.000000 -0.000000
Spine 15.876611 -20.559551 19.604534
RightShoulder -8.988054 38.448229 -47.449951
RightArm 34.379873 -6.931679 64.110455
RightForeArm 65.892574 0.000000 81.457280
RightHand 18.486798 -0.000000 -1.003170
RightHandThumb1 -24.326973 -0.000000 -32.862282
LeftShoulder 14.586358 3.606048 34.005879
LeftArm 86.363455 -3.588121 -96.604247
LeftForeArm -33.692393 -0.000000 84.333312
LeftHand -8.252032 0.000000 -3.693889
LeftHandThumb1 -26.253704 0.000000 33.147579
Head -18.884545 4.539363 8.283456
593
root -4.875648 30.051710 -10.568623 118.476495 -33.353057 6.042863
RightUpLeg -139.206333 -19.106696 11.583675
RightLeg -5.164374 -0.000000 0.000000
RightFoot 10.661672 -0.397735 30.312764
RightToeBase 20.328548 -0.000000 -0.000000
LeftUpLeg -110.716469 4.668200 -29.489845
LeftLeg -2.813525 -0.000000 0.000000
LeftFoot -2.842416 10.319755 -18.108333
LeftToeBase 7.950641 -0.000000 -0.000000
Spine 16.230921 -20.730852 19.633121
RightShoulder -8.999686 38.698567 -47.534645
RightArm 34.294916 -6.625317 64.669210
RightForeArm 66.168802 -0.000000 82.085189
RightHand 18.439987 -0.000000 -0.875795
RightHandThumb1 -24.326973 -0.000000 -32.862282
LeftShoulder 14.589584 3.597364 34.028757
LeftArm 86.329332 -3.531172 -97.099836
LeftForeArm -33.148120 0.000000 85.706509
LeftHand -9.296958 0.000000 -2.816144
LeftHandThumb1 -26.253704 0.000000 33.147579
Head -18.725019 4.572711 8.230532
594
root -4.869260 30.061721 -10.506072 118.499976 -33.374768 6.005846
RightUpLeg -139.069121 -19.089447 11.628289
RightLeg -5.305659 -0.000000 0.000000
RightFoot 10.732533 -0.340698 30.352729
RightToeBase 20.282643 -0.000000 -0.000000
LeftUpLeg -110.599249 4.606506 -29.613656
LeftLeg -2.865571 -0.000000 0.000000
LeftFoot -2.895629 10.191826 -18.099250
LeftToeBase 8.100742 -0.000000 -0.000000
Spine 16.635250 -20.893278 19.683246
RightShoulder -9.028826 39.072829 -47.640786
RightArm 34.059619 -6.353077 65.210949
RightForeArm 66.342938 -0.000000 82.748142
RightHand 18.429887 -0.000000 -1.090391
RightHandThumb1 -24.326973 -0.000000 -32.862282
LeftShoulder 14.611520 3.507182 34.142543
LeftArm 86.237928 -3.437729 -97.671770
LeftForeArm -32.846669 -0.000000 86.980603
LeftHand -9.991967 0.000000 -2.074177
LeftHandThumb1 -26.253704 0.000000 33.147579
Head -18.708430 4.731723 8.148777
595
root -4.869134 30.070617 -10.442148 118.535488 -33.398194 5.927040
RightUpLeg -138.886714 -19.028886 11.642655
RightLeg -5.484586 -0.000000 0.000000
RightFoot 10.796098 -0.335748 30.362956
RightToeBase 20.304504 -0.000000 -0.000000
LeftUpLeg -110.483952 4.607674 -29.719533
LeftLeg -2.904636 -0.000000 0.000000
LeftFoot -2.872479 10.131318 -17.898985
LeftToeBase 8.003891 -0.000000 -0.000000
Spine 17.093935 -20.902790 19.668804
RightShoulder -8.996546 39.056215 -47.544091
RightArm 34.045041 -5.901543 65.581580
RightForeArm 66.961075 -0.000000 83.530188
RightHand 18.355552 -0.000000 -0.824189
RightHandThumb1 -24.326973 -0.000000 -32.862282
LeftShoulder 14.725615 3.530029 34.345067
LeftArm 86.367905 -3.245185 -98.196417
LeftForeArm -32.620288 -0.000000 88.222276
LeftHand -10.749863 -0.000000 -1.345163
LeftHandThumb1 -26.253704 0.000000 33.147579
Head -18.722848 4.750292 8.419696
596
root -4.874673 30.073239 -10.385829 118.534248 -33.368729 5.903269
RightUpLeg -138.774853 -19.053396 11.637155
RightLeg -5.415972 -0.000000 0.000000
RightFoot 10.475452 -0.377875 30.468889
RightToeBase 20.447941 -0.000000 -0.000000
LeftUpLeg -110.387905 4.617184 -29.758416
LeftLeg -2.913737 -0.000000 0.000000
LeftFoot -2.906284 10.022880 -17.832600
LeftToeBase 8.006944 -0.000000 -0.000000
Spine 17.533520 -20.885996 19.689590
RightShoulder -8.954863 38.886774 -47.309498
RightArm 34.214053 -5.449032 65.892294
RightForeArm 67.400169 0.000000 84.305961
RightHand 18.328049 0.000000 -1.078519
RightHandThumb1 -24.326973 -0.000000 -32.862282
LeftShoulder 14.882850 3.485605 34.647707
LeftArm 86.380953 -3.039695 -98.724031
LeftForeArm -32.387369 -0.000000 89.518790
LeftHand -11.535126 0.000000 -0.349428
LeftHandThumb1 -26.253704 0.000000 33.147579
Head -18.699135 4.719300 8.947102
597
root -4.878163 30.078390 -10.320096 118.540624 -33.373276 5.848623
RightUpLeg -138.612404 -19.015900 11.648630
RightLeg -5.478421 -0.000000 0.000000
RightFoot 10.381755 -0.396208 30.544588
RightToeBase 20.496736 -0.000000 -0.000000
LeftUpLeg -110.247661 4.610749 -29.878814
LeftLeg -2.971826 -0.000000 0.000000
LeftFoot -2.907700 9.900563 -17.681309
LeftToeBase 8.052486 -0.000000 -0.000000
Spine 18.030431 -20.890601 19.739609
RightShoulder -9.128033 38.949331 -47.347564
RightArm 34.296731 -5.146444 66.328054
RightForeArm 67.783790 -0.000000 84.938848
RightHand 18.380862 -0.000000 -1.178665
RightHandThumb1 -24.326973 -0.000000 -32.862282
LeftShoulder 14.852633 3.316562 34.803359
LeftArm 86.324459 -2.789696 -99.066592
LeftForeArm -32.245337 -0.000000 90.646943
LeftHand -12.020530 -0.000000 0.545386
LeftHandThumb1 -26.253704 0.000000 33.147579
Head -19.058862 4.775200 9.042444
598
root -4.878897 30.082118 -10.253436 118.579741 -33.453296 5.766036
RightUpLeg -138.554719 -19.313862 11.450206
RightLeg -5.321954 -0.000000 0.000000
RightFoot 10.406657 -0.229899 30.590291
RightToeBase 20.093611 -0.000000 -0.000000
LeftUpLeg -110.099488 4.627674 -29.985997
LeftLeg -3.019477 -0.000000 0.000000
LeftFoot -2.970531 9.838351 -17.637136
LeftToeBase 8.084592 -0.000000 -0.000000
Spine 18.481632 -20.932652 19.666465
RightShoulder -9.084460 38.537589 -47.028917
RightArm 34.903384 -4.670716 66.548470
RightForeArm 68.561136 0.000000 85.542303
RightHand 18.359426 -0.000000 -0.583048
RightHandThumb1 -24.326973 -0.000000 -32.862282
LeftShoulder 14.871068 3.316380 34.993203
LeftArm 86.408721 -2.533742 -99.385260
LeftForeArm -31.885070 -0.000000 91.808626
LeftHand -12.738805 -0.000000 1.527190
LeftHandThumb1 -26.253704 0.000000 33.147579
Head -19.232099 4.802400 9.411340
599
root -4.883273 30.086580 -10.187311 118.604701 -33.460683 5.700678
RightUpLeg -138.375600 -19.352747 11.428218
RightLeg -5.454831 -0.000000 0.000000
RightFoot 10.463481 -0.285838 30.706847
RightToeBase 20.067908 -0.000000 -0.000000
LeftUpLeg -109.975394 4.656326 -30.053385
LeftLeg -3.062586 -0.000000 0.000000
LeftFoot -2.975501 9.775673 -17.591449
LeftToeBase 8.043821 -0.000000 -0.000000
Spine 18.968755 -20.877367 19.692733
RightShoulder -9.177548 38.111707 -46.808061
RightArm 35.513812 -4.196858 66.838814
RightForeArm 69.070480 -0.000000 86.173859
RightHand 18.075423 -0.000000 -0.546318
RightHandThumb1 -24.326973 -0.000000 -32.862282
LeftShoulder 14.844916 3.077874 35.234752
LeftArm 86.289513 -2.251682 -99.712611
LeftForeArm -31.751150 -0.000000 92.920480
LeftHand -13.298463 -0.000000 2.262079
LeftHandThumb1 -26.253704 0.000000 33.147579
Head -19.700234 4.894080 9.563862
600
root -4.888649 30.088490 -10.115395 118.599753 -33.479133 5.639777
RightUpLeg -138.117558 -19.322641 11.410015
RightLeg -5.689563 -0.000000 0.000000
RightFoot 10.426956 -0.524663 30.840982
RightToeBase 20.259713 -0.000000 -0.000000
LeftUpLeg -109.802521 4.679523 -30.167483
LeftLeg -3.135702 -0.000000 0.000000
LeftFoot -2.980315 9.676106 -17.586332
LeftToeBase 8.017214 -0.000000 -0.000000
Spine 19.493416 -20.878758 19.714604
RightShoulder -9.248807 37.712777 -46.589363
RightArm 36.134990 -3.731668 67.174654
RightForeArm 69.665996 -0.000000 86.837611
RightHand 18.170401 -0.000000 -0.394761
RightHandThumb1 -24.326973 -0.000000 -32.862282
LeftShoulder 14.818532 2.910629 35.365650
LeftArm 86.274383 -2.013610 -100.000180
LeftForeArm -31.587041 -0.000000 94.000317
LeftHand -13.875546 -0.000000 2.420510
LeftHandThumb1 -26.253704 0.000000 33.147579
Head -20.143364 4.928884 9.785552
601
root -4.895905 30.088751 -10.042319 118.632939 -33.531492 5.564045
RightUpLeg -138.031615 -19.304066 11.423316
RightLeg -5.656494 -0.000000 0.000000
RightFoot 10.452443 -0.381724 30.873945
RightToeBase 20.090729 -0.000000 -0.000000
LeftUpLeg -109.637364 4.676933 -30.346938
LeftLeg -3.236317 -0.000000 0.000000
LeftFoot -2.958417 9.558680 -17.585972
LeftToeBase 7.994204 -0.000000 -0.000000
Spine 20.025671 -20.811542 19.690880
RightShoulder -9.432390 37.307790 -46.342961
RightArm 36.755324 -3.299576 67.494001
RightForeArm 70.264559 -0.000000 87.534581
RightHand 17.920896 -0.000000 -0.198593
RightHandThumb1 -24.326973 -0.000000 -32.862282
LeftShoulder 14.774191 2.565161 35.659691
LeftArm 86.022473 -1.643673 -100.472938
LeftForeArm -31.307877 -0.000000 95.198957
LeftHand -14.011245 -0.000000 3.178324
LeftHandThumb1 -26.253704 0.000000 33.147579
Head -20.805720 4.995069 10.148300
602
root -4.900818 30.087078 -9.966843 118.642154 -33.590038 5.521097
RightUpLeg -137.918723 -19.321888 11.431708
RightLeg -5.686397 -0.000000 0.000000
RightFoot 10.500798 -0.364783 31.159254
RightToeBase 19.884592 -0.000000 -0.000000
LeftUpLeg -109.494606 4.591970 -30.698166
LeftLeg -3.276965 -0.000000 0.000000
LeftFoot -2.902573 9.220982 -17.671570
LeftToeBase 7.849752 -0.000000 -0.000000
Spine 20.506065 -20.753257 19.710350
RightShoulder -9.520683 36.921716 -46.090685
RightArm 37.297192 -2.847160 67.806260
RightForeArm 70.668175 -0.000000 88.256588
RightHand 17.995869 -0.000000 -0.608515
RightHandThumb1 -24.326973 -0.000000 -32.862282
LeftShoulder 14.768754 2.259628 35.835157
LeftArm 85.867746 -1.330725 -100.815298
LeftForeArm -31.064958 -0.000000 96.241680
LeftHand -14.261619 -0.000000 3.936956
LeftHandThumb1 -26.253704 0.000000 33.147579
Head -21.404648 5.037617 10.460911
603
root -4.911471 30.084621 -9.892461 118.672344 -33.657781 5.420009
RightUpLeg -137.723690 -19.280578 11.390137
RightLeg -5.835569 -0.000000 0.000000
RightFoot 10.527785 -0.453969 31.281514
RightToeBase 19.942443 -0.000000 -0.000000
LeftUpLeg -109.303957 4.577833 -31.014409
LeftLeg -3.421889 -0.000000 0.000000
LeftFoot -2.870424 8.994798 -17.750545
LeftToeBase 7.883557 -0.000000 -0.000000
Spine 21.045959 -20.743717 19.634758
RightShoulder -9.714901 36.646086 -45.843727
RightArm 37.935195 -2.535709 68.143872
RightForeArm 71.120934 0.000000 88.817472
RightHand 17.698563 -0.000000 -0.454580
RightHandThumb1 -24.326973 -0.000000 -32.862282
LeftShoulder 14.687463 1.975993 36.076946
LeftArm 85.694997 -1.041794 -101.179378
LeftForeArm -30.912152 -0.000000 97.368174
LeftHand -14.754556 0.000000 4.657216
LeftHandThumb1 -26.253704 0.000000 33.147579
Head -22.080317 5.157831 10.807019
604
root -4.921952 30.083365 -9.814231 118.697551 -33.739628 5.350311
RightUpLeg -137.498356 -19.280266 11.324609
RightLeg -6.038822 -0.000000 0.000000
RightFoot 10.502978 -0.594994 31.309175
RightToeBase 19.887868 -0.000000 -0.000000
LeftUpLeg -109.040731 4.582617 -31.137890
LeftLeg -3.651929 -0.000000 0.000000
LeftFoot -2.800736 9.067769 -17.795593
LeftToeBase 7.733719 -0.000000 -0.000000
Spine 21.563890 -20.660863 19.599938
RightShoulder -9.851212 36.246405 -45.547610
RightArm 38.556676 -2.111238 68.464042
RightForeArm 71.480442 0.000000 89.517392
RightHand 17.588514 -0.000000 -0.591901
RightHandThumb1 -24.326973 -0.000000 -32.862282
LeftShoulder 14.653530 1.599372 36.340438
LeftArm 85.522564 -0.737790 -101.607126
LeftForeArm -30.541324 -0.000000 98.469930
LeftHand -15.518297 -0.000000 5.185449
LeftHandThumb1 -26.253704 0.000000 33.147579
Head -22.845414 5.317084 11.102320
